<?xml version="1.0" standalone="no"?>
<!DOCTYPE svg PUBLIC "-//W3C//DTD SVG 20010904//EN"
 "http://www.w3.org/TR/2001/REC-SVG-20010904/DTD/svg10.dtd">
<svg version="1.0" xmlns="http://www.w3.org/2000/svg"
 width="300.000000pt" height="300.000000pt" viewBox="0 0 300.000000 300.000000"
 preserveAspectRatio="xMidYMid meet">
<metadata>
Created by potrace 1.11, written by Peter Selinger 2001-2013
</metadata>
<g transform="translate(0.000000,300.000000) scale(0.100000,-0.100000)"
fill="#000000" stroke="none">
<path d="M1310 2611 c-58 -15 -145 -39 -193 -52 l-88 -23 73 -18 c73 -18 162
-65 199 -104 17 -18 18 -30 13 -112 l-7 -91 -41 34 c-100 82 -223 109 -271 61
-54 -54 -54 -195 -1 -313 24 -52 25 -52 58 -43 50 15 57 10 16 -9 l-37 -17 19
-30 c11 -16 84 -92 163 -169 79 -77 157 -157 173 -178 l29 -38 50 10 50 9 -27
-23 c-15 -12 -32 -25 -38 -27 -7 -2 4 -36 28 -88 58 -125 77 -205 77 -335 0
-95 -3 -116 -22 -152 l-23 -42 147 70 c158 75 213 106 213 119 0 4 21 22 48
38 130 84 213 218 213 346 1 88 -27 133 -163 267 -106 103 -118 119 -118 150
0 56 9 61 66 44 28 -8 75 -32 105 -53 l55 -39 127 52 c144 58 227 115 206 142
-21 24 -119 69 -192 87 -71 18 -177 24 -237 13 -70 -12 -353 -116 -420 -153
l-45 -26 -59 63 c-55 58 -106 147 -120 209 -5 25 -1 26 171 80 96 30 181 60
188 65 8 6 15 46 19 100 l7 90 -50 34 c-56 38 -133 66 -206 75 -38 4 -75 -1
-155 -23z"/>
<path d="M1185 1284 c-82 -36 -151 -67 -154 -70 -12 -12 150 -153 209 -183 97
-48 146 -38 171 36 23 70 -23 284 -60 282 -9 -1 -83 -30 -166 -65z"/>
</g>
</svg>
