<svg xmlns="http://www.w3.org/2000/svg" width="35" height="34" viewBox="0 0 35 34">
  <defs>
    <style>
      .cls-1 {
        fill: #f1fbff;
        fill-rule: evenodd;
      }
    </style>
  </defs>
  <path id="Search_and_thou_shall_find_" data-name="Search (and thou shall find)" class="cls-1" d="M13.378,4.239a8.467,8.467,0,0,1,6.867,13.368l-0.829,1.171-1.165.833a8.33,8.33,0,0,1-4.872,1.571,8.472,8.472,0,0,1,0-16.943m0-4.236a12.708,12.708,0,0,0,0,25.415,12.534,12.534,0,0,0,7.316-2.355L30.848,33.269a2.1,2.1,0,0,0,2.985,0,2.128,2.128,0,0,0,0-3L23.679,20.064A12.708,12.708,0,0,0,13.378,0h0Z"/>
</svg>
