<svg xmlns="http://www.w3.org/2000/svg" width="30" height="34" viewBox="0 0 30 34">
  <defs>
    <style>
      .cls-1 {
        fill: #fff;
        fill-rule: evenodd;
      }
    </style>
  </defs>
  <path id="Simon_says" data-name="Simon says" class="cls-1" d="M15.2,4.345a10.59,10.59,0,0,1,.03,21.18L15.1,25.517c-0.116-.008-0.232-0.015-0.35-0.02l-0.711-.029-0.682.2L6.272,27.793,7.132,24.4,7.6,22.536,6.511,20.952A10.587,10.587,0,0,1,15.2,4.345m0-4.236A14.822,14.822,0,0,0,3.023,23.361L0.327,34l14.248-4.267c0.208,0.008.412,0.031,0.622,0.031A14.826,14.826,0,0,0,15.2.109h0Z"/>
</svg>
