<svg xmlns="http://www.w3.org/2000/svg" width="34" height="34" viewBox="0 0 34 34">
  <defs>
    <style>
      .cls-1 {
        fill: #fff;
        fill-rule: evenodd;
      }
    </style>
  </defs>
  <path id="Write" class="cls-1" d="M25.8,5.092l3.03,3.028L16.226,21.183h-3.5V17.688L25.8,5.092M25.831,0a2.111,2.111,0,0,0-1.5.618L8.488,15.888v9.53h9.539L33.307,9.586a2.112,2.112,0,0,0,0-2.988L27.326,0.622A2.108,2.108,0,0,0,25.831,0h0ZM29.687,28.6a1.059,1.059,0,0,1-1.06,1.059H5.308A1.06,1.06,0,0,1,4.248,28.6V5.3a1.059,1.059,0,0,1,1.06-1.059h5.3a2.119,2.119,0,0,0,2.12-2.118h0A2.119,2.119,0,0,0,10.608,0H2.129A2.119,2.119,0,0,0,.009,2.121V31.772a2.119,2.119,0,0,0,2.12,2.118H31.807a2.119,2.119,0,0,0,2.12-2.118V23.3a2.119,2.119,0,0,0-2.12-2.118h0a2.119,2.119,0,0,0-2.12,2.118v5.3Z"/>
</svg>
